<svg xmlns="http://www.w3.org/2000/svg" version="1.1" xmlns:xlink="http://www.w3.org/1999/xlink" xmlns:svgjs="http://svgjs.com/svgjs" width="1440" height="560" preserveAspectRatio="none" viewBox="0 0 1440 560"><g mask="url(&quot;#SvgjsMask1003&quot;)" fill="none"><rect width="1440" height="560" x="0" y="0" fill="rgba(25, 23, 26, 1)"></rect><path d="M0,502.446C118.853,523.69,252.987,616.812,351.98,547.691C452.057,477.813,395.044,313.997,435.046,198.679C469.792,98.511,577.368,23.782,570.412,-82.013C563.39,-188.809,478.159,-273.65,399.236,-345.94C326.401,-412.653,234.228,-447.163,139.874,-476.366C44.238,-505.966,-54.177,-539.317,-151.639,-516.437C-251.607,-492.968,-340.677,-430.785,-402.744,-348.98C-462.767,-269.869,-472.16,-168.139,-490.015,-70.453C-508.581,31.125,-548.738,137.144,-509.017,232.46C-468.966,328.568,-371.429,386.042,-279.448,434.829C-193.033,480.664,-96.292,485.235,0,502.446" fill="#141215"></path><path d="M1440 1056.192C1566.76 1075.576 1692.243 1187.319 1808.816 1133.8890000000001 1923.092 1081.511 1929.905 921.929 1982.271 807.6469999999999 2034.7150000000001 693.196 2140.748 586.263 2116.343 462.757 2091.951 339.318 1943.854 289.899 1861.215 195.015 1778.863 100.46100000000001 1744.982-39.35299999999995 1631.881-93.48800000000006 1513.579-150.11199999999997 1373.337-132.35000000000002 1246.4279999999999-99.24699999999996 1116.839-65.44500000000005 992.9169999999999-4.605000000000018 904.729 96.185 816.314 197.23399999999998 757.552 327.356 755.694 461.61199999999997 753.933 588.907 824.021 703.181 894.867 808.954 957.119 901.896 1035.312 984.98 1137.188 1031.185 1231.333 1073.883 1337.813 1040.566 1440 1056.192" fill="#1e1c1f"></path></g><defs><mask id="SvgjsMask1003"><rect width="1440" height="560" fill="#ffffff"></rect></mask></defs></svg>